<svg id="BHN_New_Logo" data-name="BHN New Logo" xmlns="http://www.w3.org/2000/svg" viewBox="0 0 399.26 92.51">
  <defs>
    <style>
      .cls-1 {
        fill: #231f20;
      }

      .cls-2 {
        fill: #0079c1;
      }

      .cls-3 {
        fill: #b0bc22;
      }
    </style>
  </defs>
  <title>BHN logo 4C</title>
  <g>
    <path class="cls-1" d="M227.23,271.88V258.23h2.17l6,10.51h0.08V258.23h1.36v13.65h-1.25l-6.92-12.17h0v12.17h-1.36Z" transform="translate(-93.17 -208.14)"/>
    <path class="cls-1" d="M278.84,258.23v1.29h-6.67v4.57h4.74v1.29h-4.74v5.22h7.05v1.29h-8.56V258.23h8.19Z" transform="translate(-93.17 -208.14)"/>
    <path class="cls-1" d="M315.95,259.51v12.36h-1.51V259.51h-4.08v-1.29H320v1.29h-4.08Z" transform="translate(-93.17 -208.14)"/>
    <path class="cls-1" d="M350.75,258.23h1.44l2.53,10.89h0l2.65-10.89h1.34l2.72,10.89h0l2.5-10.89h1.44l-3.23,13.65h-1.34l-2.8-11h0l-2.65,11H354Z" transform="translate(-93.17 -208.14)"/>
    <path class="cls-1" d="M402,258c3.35,0,5.33,2.46,5.33,7s-2,7-5.33,7-5.33-2.46-5.33-7S398.69,258,402,258Zm0,12.74c2.4,0,3.82-1.85,3.82-5.73s-1.42-5.73-3.82-5.73-3.82,1.85-3.82,5.73S399.63,270.78,402,270.78Z" transform="translate(-93.17 -208.14)"/>
    <path class="cls-1" d="M440,271.88V258.23h4.39c2.95,0,4.56,1.32,4.56,3.59a3.54,3.54,0,0,1-2.72,3.55l2.89,6.5h-1.64l-2.76-6.2h-3.2v6.2H440Zm1.51-7.49h2.74c2.08,0,3.18-.77,3.18-2.5s-1.25-2.38-3.19-2.38h-2.72v4.88Z" transform="translate(-93.17 -208.14)"/>
    <path class="cls-1" d="M484.2,271.88h-1.51V258.23h1.51v7.09h0l5.65-7.09h1.8l-4.23,5.14,4.75,8.51h-1.72l-4.06-7.26-2.21,2.68v4.57Z" transform="translate(-93.17 -208.14)"/>
  </g>
  <g>
    <path class="cls-1" d="M237.57,218.75c6.14,0,9.14,2.2,9.14,6.64a6.3,6.3,0,0,1-3.85,5.84c3.77,1.1,5.84,3.72,5.84,7.36,0,5.28-3.6,8.38-9.81,8.38H227.2V218.75h10.37Zm-1,10.53c2.75,0,3.85-.76,3.85-2.66s-1.06-2.5-4.06-2.5h-2.71v5.16h2.92Zm0.85,11.93c3.13,0,4.48-1,4.48-3.26s-1.4-3.3-4.74-3.3h-3.51v6.56h3.77Z" transform="translate(-93.17 -208.14)"/>
    <path class="cls-1" d="M261.15,241.25h10.28V247H254.72V218.75h6.43v22.51Z" transform="translate(-93.17 -208.14)"/>
    <path class="cls-1" d="M293.61,218.75L304.1,247h-6.81l-3-8.63h-8.63l-3,8.63h-6.73l10.32-28.22h7.41ZM291.87,231c0-.09-0.21-0.63-0.47-1.4L290.9,228c-0.46-1.39-.68-2.24-1-3.43-0.12.47-.21,0.81-0.25,0.93l-0.3,1.06c-0.55,1.82-.6,2-1.39,4.4l-0.68,1.94h5.29Z" transform="translate(-93.17 -208.14)"/>
    <path class="cls-1" d="M327.58,225.43a11.32,11.32,0,0,0-5.42-1.44,8.47,8.47,0,0,0-8.89,8.88c0,5.2,3.6,9,8.64,9a11.44,11.44,0,0,0,5.67-1.48v6.14a17,17,0,0,1-6,1.06c-8.68,0-14.94-6.22-14.94-14.81a14.31,14.31,0,0,1,14.74-14.47,25.36,25.36,0,0,1,6.17.89v6.26Z" transform="translate(-93.17 -208.14)"/>
    <path class="cls-1" d="M342.23,218.75v11.51l9.47-11.51h7.49l-10.74,12.65L359.33,247h-7.62l-9.47-14v14H335.8V218.75h6.43Z" transform="translate(-93.17 -208.14)"/>
    <path class="cls-1" d="M389,247h-6.44V234.32H371.85V247h-6.43V218.75h6.43v9.9h10.66v-9.9H389V247Z" transform="translate(-93.17 -208.14)"/>
    <path class="cls-1" d="M411.77,218.75L422.26,247h-6.81l-3-8.63h-8.63l-3,8.63H394l10.32-28.22h7.4ZM410,231c0-.09-0.21-0.63-0.47-1.4L409.06,228c-0.47-1.39-.67-2.24-1-3.43-0.13.47-.21,0.81-0.25,0.93l-0.3,1.06c-0.55,1.82-.59,2-1.39,4.4l-0.68,1.94h5.29Z" transform="translate(-93.17 -208.14)"/>
    <path class="cls-1" d="M430.19,218.75l3.51,12.48,0.38,1.31a45.64,45.64,0,0,1,1.14,5.42,46.88,46.88,0,0,1,1.23-6.73l3-12.48h7.15l3.13,12.81c0.55,2.33.85,3.85,1.1,5.59L451,238c0.3-1.91.89-4.74,1.36-6.39l3.73-12.81h6.81L454.39,247h-7l-3.09-12.78a43.84,43.84,0,0,1-1.23-7l-0.12,1c-0.3,2.12-.72,4.53-1.06,6L438.74,247h-7l-8.38-28.22h6.81Z" transform="translate(-93.17 -208.14)"/>
    <path class="cls-1" d="M475.33,218.75v11.51l9.48-11.51h7.49l-10.74,12.65L492.42,247h-7.62l-9.48-14v14H468.9V218.75h6.43Z" transform="translate(-93.17 -208.14)"/>
  </g>
  <path class="cls-2" d="M107.8,218.45c-0.2.08-.13,0.36,0.08,0.29,18.35-6,46.34-5.68,56.91,4.87-6.53,9.57-36.37,28.19-68.73,39.4l0.3-.1q-1.52.51-3,1c-0.42.22,0,.45,0.24,0.45h0c18.06-3.7,70.24-19.47,87.84-45.67C169.64,206.69,137.21,202.79,107.8,218.45Z" transform="translate(-93.17 -208.14)"/>
  <path class="cls-3" d="M140.6,264.68c-0.17.07-.11,0.31,0.07,0.25,16-5.26,40.33-4.95,49.53,4.24-5.69,8.33-33.14,22.48-61.87,30.44l0.26-.07-2.67.7c-0.38.17,0,.39,0.18,0.4h0c15.89-2.22,63.25-13,78.57-35.75C194.42,254.44,166.2,251.05,140.6,264.68Z" transform="translate(-93.17 -208.14)"/>
  <path class="cls-1" d="M215.56,242.09c-9.11-9.29-33.22-11.59-54.59-.21h0a0.31,0.31,0,0,0-.18.39,0.28,0.28,0,0,0,.36.16c13.56-4.46,34-4.12,41.74,3.45-5,7.14-26.89,20.7-50.58,28.91h0l-2,.66a0.37,0.37,0,0,0-.25.32,0.32,0.32,0,0,0,0,.06,0.51,0.51,0,0,0,.48.31c13.67-2.8,51.93-14.32,65-33.81l0.08-.12Z" transform="translate(-93.17 -208.14)"/>
</svg>
